#!OML:ASF H:\Pregnant\Project 1\Capture day 1\Session 1\femalepreg.ASF
:FULLY-SPECIFIED
:DEGREES
1420
root -2.12602 15.38 34.7825 379.896 -17.1033 -362.658
lowerback -15.4649 0.973958 9.31165
upperback -6.88567 -0.163912 2.18664
thorax 1.28227 -0.268231 -2.96719
lowerneck -24.9603 1.0379 2.08307
upperneck 35.8027 1.3803 -2.26112
head 17.3952 0.452099 -1.10652
rclavicle -2.80286e-014 9.54166e-015
rhumerus -14.1909 20.822 -80.1114
rradius 50.8772
rwrist -32.3361
rhand -24.8124 -35.9587
rfingers 7.12502
rthumb 1.69276 -65.9318
lclavicle -2.80286e-014 9.54166e-015
lhumerus -20.6057 -19.5868 73.539
lradius 50.1295
lwrist 48.8889
lhand -34.7764 13.7815
lfingers 7.12502
lthumb -7.92898 43.6128
rfemur -33.5044 10.0746 23.3411
rtibia 35.1665
rfoot -13.9406 -20.2918
rtoes -8.31331
lfemur -40.21 -6.853 -5.9161
ltibia 18.712
lfoot -4.1888 15.6028
ltoes -44.5313
1421
root -2.1202 15.3743 34.855 379.941 -17.2858 -362.875
lowerback -15.4763 0.956061 9.28978
upperback -6.89245 -0.186648 2.19732
thorax 1.27897 -0.279722 -2.94739
lowerneck -24.9632 1.12435 2.102
upperneck 35.9724 1.49483 -2.23872
head 17.4911 0.503302 -1.07766
rclavicle -6.67916e-014 -2.38542e-015
rhumerus -14.28 20.809 -80.0599
rradius 50.9563
rwrist -32.3346
rhand -25.0713 -36.4904
rfingers 7.12502
rthumb 1.4427 -66.4653
lclavicle -6.67916e-014 -2.38542e-015
lhumerus -20.5646 -19.7793 73.6206
lradius 49.9466
lwrist 48.9504
lhand -34.7799 13.8269
lfingers 7.12502
lthumb -7.93237 43.6581
rfemur -33.1024 10.2194 23.4674
rtibia 34.9661
rfoot -14.0012 -20.3024
rtoes -8.80763
lfemur -40.415 -7.15447 -5.59972
ltibia 18.4371
lfoot -4.07091 15.8111
ltoes -44.5073
1422
root -2.11355 15.368 34.9278 379.971 -17.475 -363.104
lowerback -15.4676 0.934896 9.26953
upperback -6.89475 -0.211724 2.20794
thorax 1.26955 -0.292482 -2.9289
lowerneck -24.966 1.19905 2.11549
upperneck 36.1192 1.59295 -2.21431
head 17.5744 0.547277 -1.04998
rclavicle -5.2827e-014 -1.82882e-014
rhumerus -14.3669 20.8051 -80.0142
rradius 51.0164
rwrist -32.3214
rhand -25.31 -36.9804
rfingers 7.12502
rthumb 1.21219 -66.9567
lclavicle -5.2827e-014 -1.82882e-014
lhumerus -20.519 -19.9755 73.6926
lradius 49.7712
lwrist 49.015
lhand -34.7785 13.842
lfingers 7.12502
lthumb -7.93097 43.6732
rfemur -32.6754 10.3608 23.6062
rtibia 34.759
rfoot -14.0152 -20.3092
rtoes -9.4754
lfemur -40.6076 -7.37372 -5.35451
ltibia 18.2968
lfoot -3.98715 16.0116
ltoes -44.4089
1423
root -2.10592 15.3611 35.0011 379.986 -17.6745 -363.347
lowerback -15.4602 0.90659 9.2455
upperback -6.85467 -0.248873 2.23526
thorax 1.30505 -0.307683 -2.89285
lowerneck -25.0914 1.26769 2.10884
upperneck 36.2643 1.69296 -2.19748
head 17.6878 0.587334 -1.02165
rclavicle -4.16205e-014 2.78299e-014
rhumerus -14.402 20.8519 -79.9254
rradius 51.0937
rwrist -32.3312
rhand -25.6282 -37.5998
rfingers 7.12502
rthumb 0.904869 -67.5776
lclavicle -4.16205e-014 2.78299e-014
lhumerus -20.4001 -20.1233 73.7474
lradius 49.6009
lwrist 49.0826
lhand -34.8486 13.7086
lfingers 7.12502
lthumb -7.99865 43.5372
rfemur -32.2195 10.5025 23.7576
rtibia 34.5423
rfoot -14.0097 -20.308
rtoes -10.2116
lfemur -40.7713 -7.4251 -5.2331
ltibia 18.285
lfoot -4.01865 16.1266
ltoes -44.1934
1424
root -2.09727 15.3538 35.0746 379.993 -17.8802 -363.602
lowerback -15.4436 0.885633 9.23129
upperback -6.81123 -0.276454 2.25141
thorax 1.34011 -0.318356 -2.8725
lowerneck -25.2223 1.32039 2.11543
upperneck 36.3918 1.76328 -2.18365
head 17.7928 0.616817 -1.00309
rclavicle -1.20016e-014 -6.36111e-015
rhumerus -14.4686 20.8949 -79.8444
rradius 51.1788
rwrist -32.3579
rhand -26.0191 -38.3344
rfingers 7.12502
rthumb 0.527306 -68.3135
lclavicle -1.20016e-014 -6.36111e-015
lhumerus -20.2702 -20.2976 73.7861
lradius 49.4488
lwrist 49.1565
lhand -34.9581 13.4913
lfingers 7.12502
lthumb -8.10437 43.3159
rfemur -31.7438 10.6322 23.9211
rtibia 34.3176
rfoot -14.0146 -20.288
rtoes -10.9136
lfemur -40.9085 -7.32638 -5.23176
ltibia 18.3854
lfoot -4.13625 16.1608
ltoes -43.9088
1425
root -2.08737 15.346 35.1488 379.99 -18.0984 -363.863
lowerback -15.4275 0.86991 9.22046
upperback -6.75695 -0.298134 2.2609
thorax 1.3876 -0.325382 -2.86022
lowerneck -25.3789 1.36113 2.12674
upperneck 36.5052 1.81332 -2.17183
head 17.8964 0.638411 -0.990409
rclavicle 3.56818e-014 -1.19271e-014
rhumerus -14.5067 20.9327 -79.7639
rradius 51.224
rwrist -32.3905
rhand -26.309 -38.8753
rfingers 7.12502
rthumb 0.247287 -68.8549
lclavicle 3.56818e-014 -1.19271e-014
lhumerus -20.1234 -20.4785 73.8113
lradius 49.3165
lwrist 49.2315
lhand -35.0293 13.3935
lfingers 7.12502
lthumb -8.17307 43.2155
rfemur -31.2528 10.7458 24.0868
rtibia 34.0924
rfoot -14.0592 -20.241
rtoes -11.5079
lfemur -41.0018 -7.09491 -5.34908
ltibia 18.5665
lfoot -4.3147 16.1038
ltoes -43.578
1426
root -2.07632 15.3376 35.2235 379.99 -18.3194 -364.131
lowerback -15.414 0.865754 9.22242
upperback -6.71387 -0.305483 2.25327
thorax 1.42565 -0.326495 -2.87078
lowerneck -25.4921 1.39416 2.16749
upperneck 36.5864 1.84378 -2.17439
head 17.9717 0.65452 -0.993366
rclavicle -4.5149e-014 -1.98785e-014
rhumerus -14.5684 20.9399 -79.7014
rradius 51.2432
rwrist -32.4353
rhand -26.6693 -39.4864
rfingers 7.12502
rthumb -0.100677 -69.4662
lclavicle -4.5149e-014 -1.98785e-014
lhumerus -19.99 -20.7011 73.8297
lradius 49.2073
lwrist 49.3069
lhand -35.0637 13.3988
lfingers 7.12502
lthumb -8.20627 43.2194
rfemur -30.7655 10.8434 24.2554
rtibia 33.8792
rfoot -14.1577 -20.1734
rtoes -11.9549
lfemur -41.0535 -6.79354 -5.53929
ltibia 18.7852
lfoot -4.45571 15.9539
ltoes -43.3095
1427
root -2.06402 15.3277 35.2988 380.005 -18.5352 -364.402
lowerback -15.4108 0.872797 9.23734
upperback -6.69842 -0.298962 2.22744
thorax 1.44077 -0.323049 -2.90544
lowerneck -25.479 1.40833 2.19411
upperneck 36.6063 1.84616 -2.16016
head 17.9797 0.66068 -0.991464
rclavicle -2.58172e-014 -3.02153e-014
rhumerus -14.6905 20.9274 -79.6604
rradius 51.2522
rwrist -32.5066
rhand -26.8786 -39.8519
rfingers 7.12502
rthumb -0.302792 -69.8314
lclavicle -2.58172e-014 -3.02153e-014
lhumerus -19.8962 -20.9707 73.8553
lradius 49.1178
lwrist 49.3758
lhand -35.0429 13.5048
lfingers 7.12502
lthumb -8.18618 43.3262
rfemur -30.3055 10.9172 24.4227
rtibia 33.6918
rfoot -14.3247 -20.0863
rtoes -12.2244
lfemur -41.0789 -6.5835 -5.70547
ltibia 19.0067
lfoot -4.35385 15.7636
ltoes -43.2661
1428
root -2.05006 15.316 35.3751 380.025 -18.7252 -364.669
lowerback -15.4116 0.877129 9.26301
upperback -6.70536 -0.296138 2.18764
thorax 1.4332 -0.32348 -2.96133
lowerneck -25.4068 1.41325 2.21345
upperneck 36.6097 1.83192 -2.13042
head 17.9627 0.661802 -0.984618
rclavicle -1.01306e-013 1.27222e-014
rhumerus -14.861 20.9217 -79.6345
rradius 51.2608
rwrist -32.6094
rhand -26.8657 -39.8495
rfingers 7.12502
rthumb -0.29037 -69.8291
lclavicle -1.01306e-013 1.27222e-014
lhumerus -19.8308 -21.27 73.8855
lradius 49.0377
lwrist 49.4341
lhand -35.0131 13.5918
lfingers 7.12502
lthumb -8.15745 43.4143
rfemur -29.8665 10.9543 24.5848
rtibia 33.5405
rfoot -14.5217 -19.9954
rtoes -12.4846
lfemur -41.0677 -6.52391 -5.82503
ltibia 19.2058
lfoot -3.94619 15.4107
ltoes -43.4384
1429
root -2.03469 15.3024 35.4526 380.048 -18.8976 -364.929
lowerback -15.4214 0.875989 9.28919
upperback -6.72536 -0.300669 2.14166
thorax 1.41547 -0.328534 -3.02522
lowerneck -25.2899 1.40845 2.20792
upperneck 36.5934 1.8074 -2.08233
head 17.9224 0.65821 -0.966948
rclavicle -1.20265e-014 2.06736e-014
rhumerus -15.07 20.9359 -79.6128
rradius 51.2756
rwrist -32.737
rhand -26.8407 -39.8637
rfingers 7.12502
rthumb -0.266234 -69.8433
lclavicle -1.20265e-014 2.06736e-014
lhumerus -19.7874 -21.5626 73.9259
lradius 48.9631
lwrist 49.4688
lhand -34.9725 13.6536
lfingers 7.12502
lthumb -8.11826 43.4777
rfemur -29.4483 10.969 24.7373
rtibia 33.4262
rfoot -14.7434 -19.9074
rtoes -12.73
lfemur -41.018 -6.63251 -5.87933
ltibia 19.3916
lfoot -3.23959 14.8306
ltoes -43.7442
1430
root -2.01799 15.2871 35.5313 380.068 -19.0573 -365.185
lowerback -15.4336 0.866908 9.31347
upperback -6.75573 -0.314865 2.08967
thorax 1.38677 -0.339273 -3.09593
lowerneck -25.1524 1.39465 2.18895
upperneck 36.5745 1.76834 -2.01724
head 17.8746 0.649455 -0.942346
rclavicle 1.70458e-014 -1.59028e-014
rhumerus -15.2914 20.9618 -79.607
rradius 51.2647
rwrist -32.8683
rhand -26.8065 -39.8677
rfingers 7.12502
rthumb -0.233187 -69.8474
lclavicle 1.70458e-014 -1.59028e-014
lhumerus -19.7597 -21.8479 73.9668
lradius 48.8854
lwrist 49.4815
lhand -34.9069 13.6965
lfingers 7.12502
lthumb -8.05492 43.523
rfemur -29.0436 10.9654 24.8828
rtibia 33.3426
rfoot -14.9785 -19.8211
rtoes -12.989
lfemur -40.9338 -6.89316 -5.86515
ltibia 19.5838
lfoot -2.30551 13.9979
ltoes -44.0862
1431
root -2.00082 15.271 35.6107 380.093 -19.2416 -365.45
lowerback -15.4645 0.855203 9.31296
upperback -6.75677 -0.333777 2.05895
thorax 1.39955 -0.348946 -3.13138
lowerneck -25.1382 1.3762 2.13827
upperneck 36.5855 1.73508 -1.951
head 17.8743 0.638014 -0.910692
rclavicle -2.50966e-015 2.18663e-014
rhumerus -15.4251 21.0093 -79.5625
rradius 51.2084
rwrist -32.9914
rhand -26.7741 -39.8526
rfingers 7.12502
rthumb -0.201912 -69.8322
lclavicle -2.50966e-015 2.18663e-014
lhumerus -19.6739 -22.0767 74.0099
lradius 48.7963
lwrist 49.4781
lhand -34.8392 13.7582
lfingers 7.12502
lthumb -7.98957 43.5872
rfemur -28.6512 10.9937 25.0225
rtibia 33.2791
rfoot -15.2084 -19.7439
rtoes -13.2609
lfemur -40.8099 -7.07303 -5.87632
ltibia 19.8106
lfoot -1.40287 12.7986
ltoes -44.2526
1432
root -1.98343 15.2548 35.6906 380.131 -19.454 -365.724
lowerback -15.5101 0.850125 9.29363
upperback -6.75944 -0.343232 2.03193
thorax 1.41996 -0.353317 -3.15096
lowerneck -25.1439 1.35251 2.08354
upperneck 36.6061 1.69453 -1.88297
head 17.8841 0.623229 -0.879242
rclavicle 4.0726e-014 -1.59028e-014
rhumerus -15.5467 21.0522 -79.5206
rradius 51.1151
rwrist -33.1031
rhand -26.7343 -39.8467
rfingers 7.12502
rthumb -0.163505 -69.8264
lclavicle 4.0726e-014 -1.59028e-014
lhumerus -19.5826 -22.2866 74.0587
lradius 48.6976
lwrist 49.4512
lhand -34.7572 13.8082
lfingers 7.12502
lthumb -7.91044 43.6402
rfemur -28.2789 11.0602 25.1523
rtibia 33.2258
rfoot -15.4318 -19.67
rtoes -13.5163
lfemur -40.6833 -7.22389 -5.87285
ltibia 20.0894
lfoot -0.496373 11.4558
ltoes -44.308
1433
root -1.9658 15.2389 35.771 380.18 -19.682 -365.99
lowerback -15.5726 0.850944 9.2439
upperback -6.76528 -0.342467 2.00444
thorax 1.44791 -0.351881 -3.15251
lowerneck -25.1541 1.31326 2.01533
upperneck 36.6268 1.63678 -1.816
head 17.8944 0.599428 -0.849757
rclavicle -5.29513e-014 -2.90226e-014
rhumerus -15.6223 21.0396 -79.4823
rradius 50.9362
rwrist -33.1726
rhand -26.6893 -39.8841
rfingers 7.12502
rthumb -0.119964 -69.8638
lclavicle -5.29513e-014 -2.90226e-014
lhumerus -19.4821 -22.4916 74.122
lradius 48.5859
lwrist 49.405
lhand -34.6667 13.8716
lfingers 7.12502
lthumb -7.82311 43.7068
rfemur -27.9252 11.1529 25.2602
rtibia 33.1774
rfoot -15.6373 -19.6078
rtoes -13.7803
lfemur -40.5792 -7.33123 -5.87337
ltibia 20.4245
lfoot 0.404775 10.1074
ltoes -44.2882
